<svg width="100px" height="100px" fill="#000000" version="1.1" viewBox="0 0 100 100" xmlns="http://www.w3.org/2000/svg">
 <g transform="matrix(.76951 0 0 .76951 11.524 -721.33)">
  <path d="m80.005 955.36c-3.0273 1.9385-5.5302 4.2544-7.7473 6.5334 0.25604-1.2605 0.25398-2.524-0.24992-3.5324l-4.9983-2.0007c0.89593 1.7931 1.5137 4.7554 1.8744 7.1586-5.7435-2.6657-12.13-4.1576-18.868-4.1576-24.821 0-45.016 20.178-45.016 45.015 0 24.837 20.195 44.984 45.016 44.984 24.82 0 44.984-20.146 44.984-44.984 0-16.29-8.6714-30.605-21.649-38.513 2.2801-2.875 7.9171-4.8255 12.652-6.3146zm-18.025 32.198c4.9885 6.6938 10.92 9.5505 16.369 9.972 4.5354 0.351 8.6383-0.7199 11.715-1.8443 0.60097 2.7992 0.90594 5.7101 0.90594 8.6904 0 22.675-18.295 41.014-40.955 41.014s-40.986-18.339-40.986-41.014c0-2.8901 0.30866-5.7196 0.87469-8.4403 6.0766 2.7275 14.837 4.7533 24.054 4.3764 10.026-0.41004 20.608-3.8746 28.022-12.754zm-27.459 13.817c-2.5204 0.2561-4.4984 2.412-4.4984 5.0016 0 2.7624 2.2378 5.0017 4.9983 5.0017 2.7605 0 4.9983-2.2393 4.9983-5.0017-4e-3 -3.3485-2.4878-4.9985-5.4981-5.0016zm25.491 5.0016c0 2.7624 2.2378 5.0017 4.9983 5.0017s4.9983-2.2393 4.9983-5.0017c0-2.7623-2.2378-5.0016-4.9983-5.0016-3.4792 0-4.9376 2.8847-4.9983 5.0016zm-23.179 13.004c-0.98284 0.093-1.8161 1.0128-1.8119 2.0007 0 2.7358 1.5783 5.5024 4.1548 7.8464 2.5765 2.3437 6.3113 4.1576 10.84 4.1576s8.2635-1.8139 10.84-4.1576c2.5765-2.344 4.1548-5.1106 4.1548-7.8464-9e-5 -1.0475-0.95249-2.0006-1.9993-2.0007h-26.178zm2.8428 4.0014h20.68c-0.46873 0.9276-1.1704 1.9514-2.1867 2.8759-1.922 1.7484-4.6849 3.1261-8.1534 3.1261s-6.2315-1.3777-8.1534-3.1261c-1.0163-0.9245-1.718-1.9483-2.1867-2.8759z" fill="#000" overflow="visible" style="color:#000000;text-indent:0;text-transform:none"/>
 </g>
</svg>
