<svg width="100px" height="100px" fill="#000000" version="1.1" viewBox="0 0 100 100" xmlns="http://www.w3.org/2000/svg">
 <g transform="matrix(.787 0 0 .787 10.65 -738.86)">
  <path d="m80 957.36c-3.0284 1.9173-5.5322 4.2077-7.75 6.4616 0.25613-1.2466 0.25407-2.4962-0.25-3.4935l-5-1.9787c0.77688 1.5372 1.3442 3.9527 1.7188 6.1216-5.6842-2.6517-12.022-4.1429-18.719-4.1429-24.289 0-44 19.501-44 43.531 0 24.03 19.711 43.5 44 43.5s44-19.471 44-43.5c0-15.359-8.0633-28.854-20.219-36.606 2.4998-2.5832 7.7545-4.3625 12.219-5.7506zm-30 4.9159c19.05 0 35.103 12.549 40.25 29.742-2.9724 1.1703-7.1899 2.4466-11.688 2.1024-5.2254-0.3996-10.855-2.8742-15.719-10.574-0.20709-0.3402-0.63599-0.533-1.0312-0.4638-0.24981 0.049-0.4786 0.1958-0.625 0.4019-6.7991 9.4582-17.21 12.976-27.375 13.387-9.4259 0.3811-18.606-1.9728-24.094-4.6994 5.0979-17.27 21.176-29.897 40.281-29.897zm11.969 23.373c4.9894 7.2278 10.986 10.031 16.469 10.45 4.8578 0.3717 9.2513-0.9277 12.344-2.1332 0.78171 3.1718 1.2188 6.4832 1.2188 9.8935 0 22.961-18.792 41.553-42 41.553s-42-18.592-42-41.553c0-3.3554 0.42999-6.6136 1.1875-9.739 5.9018 2.8559 15.107 5.119 24.719 4.7304 10.193-0.4122 20.836-3.962 28.062-13.202zm-31.969 20.189c0 2.732 2.2386 4.9467 5 4.9467s5-2.2147 5-4.9467-2.2386-4.9468-5-4.9468c-3.2666 0.1292-4.9393 2.8521-5 4.9468zm30 0c0 2.732 2.2386 4.9467 5 4.9467s5-2.2147 5-4.9467-2.2386-4.9468-5-4.9468c-3.2666 0.067-4.9393 2.8521-5 4.9468zm-23.188 13.851c-0.4584 0.087-0.82072 0.5277-0.8125 0.9893 0 2.2523 1.3988 4.8472 3.8125 7.0183 2.4137 2.1707 5.9224 3.8646 10.188 3.8646s7.7738-1.6939 10.188-3.8646c2.4137-2.1711 3.8125-4.766 3.8125-7.0183-5e-5 -0.518-0.47642-0.9892-1-0.9893h-26c-0.0623-0.01-0.12518-0.01-0.1875 0zm1.5 1.9787h23.375c-0.33545 1.3523-1.1908 3.0609-2.875 4.5757-2.0863 1.8764-5.0776 3.3391-8.8125 3.3391s-6.7262-1.4627-8.8125-3.3391c-1.6842-1.5148-2.5396-3.2234-2.875-4.5757z" fill="#000" overflow="visible" style="color:#000000;text-indent:0;text-transform:none"/>
 </g>
</svg>
