<svg width="100" height="100" version="1.1" viewBox="0 0 26.458 26.458" xmlns="http://www.w3.org/2000/svg">
 <g transform="translate(-80.482 -78.949)">
  <g transform="translate(2.5352 .80028)">
   <g transform="matrix(.52036 0 0 .52036 77.529 77.61)">
    <path d="m15 8c0-2.76-2.24-5-5-5s-5 2.24-5 5c0 2.45 3.53 6.79 4.23 7.64 0.19 0.23 0.47 0.36 0.77 0.36s0.58-0.13 0.77-0.36c0.7-0.85 4.23-5.19 4.23-7.64zm-8 0c0-1.65 1.35-3 3-3s3 1.35 3 3c0 1.07-1.57 3.53-3 5.4-1.43-1.87-3-4.32-3-5.4z"/>
    <circle cx="10" cy="8" r="2"/>
    <path d="m24.781 42.934-12.781 0.065668c-2.76 0.01418-5-2.24-5-5s2.24-5 5-5h12c3.86 0 7-3.14 7-7s-3.14-7-7-7h-11c-1.1 0-2-0.9-2-2 0-0.55-0.45-1-1-1s-1 0.45-1 1c0 2.21 1.79 4 4 4h11c2.76 0 5 2.24 5 5s-2.24 5-5 5h-12c-3.86 0-7 3.14-7 7s3.1401 7.0198 7 7l12.781-0.06567c0.54999-0.0028 1-0.5286 1-1s-0.51335-1.0968-1-1z"/>
   </g>
   <g transform="matrix(.12734 0 0 .12734 91.519 92.722)">
    <path d="m84.962 57.967c-0.42 0-0.833 0.029-1.241 0.079 4e-3 -0.151 0.023-0.298 0.023-0.449 0-1.104-0.896-2-2-2s-2 0.896-2 2c0 7.64-6.221 13.856-13.867 13.856-1.71 0-3.372-0.307-4.944-0.913-2.146-0.821-3.997-2.141-5.453-3.793-0.055-0.068-0.111-0.134-0.175-0.194-1.941-2.29-3.127-5.194-3.265-8.316-6e-3 -0.146-0.03-0.286-0.065-0.422 8e-3 -0.072 0.022-0.142 0.022-0.217v-7.679h0.555s3.262-2.794 6.132-5.421c3.296-3.016 3.001-7.745-0.927-10.222-1.018-0.642-2.137-1.07-3.311-1.07h-8.899c-1.175 0-2.294 0.428-3.311 1.07-3.928 2.477-4.223 7.206-0.927 10.222 2.87 2.627 6.132 5.421 6.132 5.421h0.556v7.679c0 0.072 0.014 0.141 0.021 0.211-0.037 0.142-0.063 0.288-0.069 0.441-0.027 0.73-0.118 1.438-0.278 2.147-0.864 4.256-3.726 7.886-7.665 9.715-0.308 0.145-0.615 0.282-0.964 0.412-1.574 0.616-3.235 0.928-4.94 0.928-7.635 0-13.846-6.211-13.846-13.846 0-1.104-0.896-2-2-2s-2 0.896-2 2c0 0.148 0.019 0.292 0.022 0.439-0.408-0.05-0.821-0.079-1.24-0.079-5.535 1e-3 -10.038 4.504-10.038 10.039 0 1.95 0.568 3.835 1.625 5.453-1.057 1.6-1.625 3.484-1.625 5.451 0 5.529 4.503 10.027 10.038 10.027 4.771 0 8.743-3.27 9.765-7.734h50.395c1.022 4.464 4.994 7.734 9.765 7.734 5.534 0 10.037-4.498 10.037-10.027 0-1.967-0.568-3.851-1.625-5.451 1.057-1.618 1.625-3.503 1.625-5.453 0-5.535-4.503-10.038-10.038-10.038zm-34.972 7.777c0.045 0.087 0.09 0.174 0.136 0.261h-0.268c0.046-0.086 0.087-0.175 0.132-0.261zm39.4 9.105c1.039 1.088 1.61 2.53 1.61 4.06 0 3.323-2.708 6.027-6.038 6.027-3.268 0-5.91-2.547-6.017-5.8-0.036-1.079-0.92-1.935-1.999-1.935h-53.893c-1.079 0-1.963 0.856-1.999 1.935-0.106 3.252-2.749 5.8-6.017 5.8-3.329 0-6.037-2.704-6.037-6.027 0-1.53 0.572-2.972 1.61-4.06 0.731-0.766 0.738-1.969 0.017-2.744-1.049-1.126-1.627-2.583-1.627-4.1 0-3.329 2.708-6.038 6.038-6.038 0.648 0 1.267 0.105 1.857 0.299 2.057 7.584 8.981 13.186 17.207 13.186 2.206 0 4.358-0.405 6.365-1.191 0.423-0.157 0.833-0.337 1.234-0.526 1.979-0.919 3.745-2.196 5.233-3.731h6.1c1.781 1.843 3.972 3.316 6.466 4.269 2.029 0.782 4.175 1.179 6.378 1.179 8.232 0 15.163-5.601 17.225-13.185 0.59-0.195 1.211-0.3 1.86-0.3 3.329 0 6.038 2.708 6.038 6.038 0 1.518-0.578 2.974-1.627 4.1-0.723 0.774-0.716 1.978 0.016 2.744z"/>
    <circle cx="40.018" cy="58.607" r="2.636"/>
    <circle cx="28.185" cy="58.607" r="2.636"/>
    <circle cx="34.101" cy="65.589" r="2.636"/>
    <circle cx="72.036" cy="58.607" r="2.636"/>
    <circle cx="60.202" cy="58.607" r="2.636"/>
    <circle cx="66.119" cy="65.589" r="2.636"/>
    <circle cx="28.185" cy="19.635" r="8.57"/>
    <circle cx="72.036" cy="19.635" r="8.57"/>
   </g>
  </g>
 </g>
</svg>
