<svg height='100px' width='100px'  fill="#000000" xmlns="http://www.w3.org/2000/svg" xmlns:xlink="http://www.w3.org/1999/xlink" version="1.1" x="0px" y="0px" viewBox="0 0 100 100" style="enable-background:new 0 0 100 100;" xml:space="preserve"><g><path d="M84.962,57.967c-0.42,0-0.833,0.029-1.241,0.079c0.004-0.151,0.023-0.298,0.023-0.449c0-1.104-0.896-2-2-2s-2,0.896-2,2   c0,7.64-6.221,13.856-13.867,13.856c-1.71,0-3.372-0.307-4.944-0.913c-2.146-0.821-3.997-2.141-5.453-3.793   c-0.055-0.068-0.111-0.134-0.175-0.194c-1.941-2.29-3.127-5.194-3.265-8.316c-0.006-0.146-0.03-0.286-0.065-0.422   c0.008-0.072,0.022-0.142,0.022-0.217v-7.679h0.555c0,0,3.262-2.794,6.132-5.421c3.296-3.016,3.001-7.745-0.927-10.222   c-1.018-0.642-2.137-1.07-3.311-1.07h-8.899c-1.175,0-2.294,0.428-3.311,1.07c-3.928,2.477-4.223,7.206-0.927,10.222   c2.87,2.627,6.132,5.421,6.132,5.421h0.556v7.679c0,0.072,0.014,0.141,0.021,0.211c-0.037,0.142-0.063,0.288-0.069,0.441   c-0.027,0.73-0.118,1.438-0.278,2.147c-0.864,4.256-3.726,7.886-7.665,9.715c-0.308,0.145-0.615,0.282-0.964,0.412   c-1.574,0.616-3.235,0.928-4.94,0.928c-7.635,0-13.846-6.211-13.846-13.846c0-1.104-0.896-2-2-2s-2,0.896-2,2   c0,0.148,0.019,0.292,0.022,0.439c-0.408-0.05-0.821-0.079-1.24-0.079C9.503,57.967,5,62.47,5,68.005   c0,1.95,0.568,3.835,1.625,5.453C5.568,75.058,5,76.942,5,78.909c0,5.529,4.503,10.027,10.038,10.027   c4.771,0,8.743-3.27,9.765-7.734h50.395c1.022,4.464,4.994,7.734,9.765,7.734C90.497,88.936,95,84.438,95,78.909   c0-1.967-0.568-3.851-1.625-5.451C94.432,71.84,95,69.955,95,68.005C95,62.47,90.497,57.967,84.962,57.967z M49.99,65.744   c0.045,0.087,0.09,0.174,0.136,0.261h-0.268C49.904,65.919,49.945,65.83,49.99,65.744z M89.39,74.849   c1.039,1.088,1.61,2.53,1.61,4.06c0,3.323-2.708,6.027-6.038,6.027c-3.268,0-5.91-2.547-6.017-5.8   c-0.036-1.079-0.92-1.935-1.999-1.935H23.053c-1.079,0-1.963,0.856-1.999,1.935c-0.106,3.252-2.749,5.8-6.017,5.8   C11.708,84.936,9,82.232,9,78.909c0-1.53,0.572-2.972,1.61-4.06c0.731-0.766,0.738-1.969,0.017-2.744   C9.578,70.979,9,69.522,9,68.005c0-3.329,2.708-6.038,6.038-6.038c0.648,0,1.267,0.105,1.857,0.299   c2.057,7.584,8.981,13.186,17.207,13.186c2.206,0,4.358-0.405,6.365-1.191c0.423-0.157,0.833-0.337,1.234-0.526   c1.979-0.919,3.745-2.196,5.233-3.731h6.1c1.781,1.843,3.972,3.316,6.466,4.269c2.029,0.782,4.175,1.179,6.378,1.179   c8.232,0,15.163-5.601,17.225-13.185c0.59-0.195,1.211-0.3,1.86-0.3c3.329,0,6.038,2.708,6.038,6.038   c0,1.518-0.578,2.974-1.627,4.1C88.651,72.879,88.658,74.083,89.39,74.849z"></path><circle cx="40.018" cy="58.607" r="2.636"></circle><circle cx="28.185" cy="58.607" r="2.636"></circle><circle cx="34.101" cy="65.589" r="2.636"></circle><circle cx="72.036" cy="58.607" r="2.636"></circle><circle cx="60.202" cy="58.607" r="2.636"></circle><circle cx="66.119" cy="65.589" r="2.636"></circle><circle cx="28.185" cy="19.635" r="8.57"></circle><circle cx="72.036" cy="19.635" r="8.57"></circle></g></svg>