<svg height='100px' width='100px'  fill="#000000" xmlns="http://www.w3.org/2000/svg" data-name="Layer 1" viewBox="0 0 512 512" x="0px" y="0px"><title>Female</title><g data-name="Group"><path data-name="Compound Path" d="M232,316.781V376H198a8,8,0,0,0-8,8v32a8,8,0,0,0,8,8h34v38a8,8,0,0,0,8,8h32a8,8,0,0,0,8-8V424h34a8,8,0,0,0,8-8V384a8,8,0,0,0-8-8H280V316.781a136.858,136.858,0,0,0,73.928-38.425c54-54,54-141.857,0-195.854a138.639,138.639,0,0,0-195.856,0c-54,54-54,141.857,0,195.854A136.861,136.861,0,0,0,232,316.781ZM169.387,93.815A122.49,122.49,0,0,1,342.613,267.043a121.146,121.146,0,0,1-71.586,34.895A8,8,0,0,0,264,309.879V384a8,8,0,0,0,8,8h34v16H272a8,8,0,0,0-8,8v38H248V416a8,8,0,0,0-8-8H206V392h34a8,8,0,0,0,8-8V309.879a8,8,0,0,0-7.027-7.941,121.149,121.149,0,0,1-71.586-34.895A122.628,122.628,0,0,1,169.387,93.815Z"></path><path data-name="Compound Path" d="M256,286.87a106.441,106.441,0,1,0-75.3-31.141A106.164,106.164,0,0,0,256,286.87ZM192.014,116.442a90.448,90.448,0,1,1,0,127.974A90.6,90.6,0,0,1,192.014,116.442Z"></path></g></svg>