<svg height='100px' width='100px'  fill="#000000" xmlns="http://www.w3.org/2000/svg" viewBox="0 0 512 512" x="0px" y="0px"><title>Cat</title><g><circle cx="202.8661" cy="248.231" r="13.0162"></circle><circle cx="309.1339" cy="248.231" r="13.0162"></circle><path d="M225.0605,335.231a8,8,0,0,0,0,16A38.8932,38.8932,0,0,0,256,335.8983a38.8932,38.8932,0,0,0,30.94,15.3327,8,8,0,0,0,0-16A22.9656,22.9656,0,0,1,264,312.292V301.1136l14.5258-18.2464a7.5317,7.5317,0,0,0-5.8925-12.2226H239.3667a7.5317,7.5317,0,0,0-5.8925,12.2226L248,301.1136V312.292A22.9656,22.9656,0,0,1,225.0605,335.231Z"></path><path d="M346.8574,185.1382a8,8,0,0,0,12.9024-9.4629,128.8973,128.8973,0,0,0-208.3369,1.1265A8,8,0,1,0,164.415,186.14a112.897,112.897,0,0,1,182.4424-1.0014Z"></path><path d="M427.35,324.2886l-14.4707-3.8468a93.8288,93.8288,0,0,0-2.0742-39.133l16.5449-4.3982a8,8,0,0,0-4.1113-15.4628l-17.8864,4.7547q-2.0828-4.5687-4.6556-9.03a221.8609,221.8609,0,0,1-18.323-41.8924A246.2181,246.2181,0,0,0,401.999,104.7983l-.625-11.2754a8,8,0,0,0-12.1806-6.37l-60.961,37.5186a8,8,0,1,0,8.3867,13.626l49.5137-30.4732A230.181,230.181,0,0,1,366.53,211.6411c-.0193.0432-.0323.0875-.0506.1309-.06.14-.113.2825-.1648.4261-.0388.1079-.0781.2155-.112.3241-.0432.1382-.0794.2782-.115.4188-.0293.1159-.06.2315-.084.3478-.0281.1356-.0485.2728-.0693.41-.0186.1214-.0386.2426-.0513.3641-.0144.1355-.0208.272-.0281.4086-.0066.1236-.0146.2469-.0155.37-.0008.1349.006.27.0121.4056.0055.126.01.2517.0215.3769.012.13.0312.2592.05.3891.0188.1323.0375.2642.0628.3952.0235.1211.0529.2418.0822.3627.0337.139.0686.2772.1095.414.0145.0484.023.0971.0384.1454,5.8321,18.2719,12.58,33.9233,20.628,47.8481q1.4919,2.5811,2.7812,5.2045l-36.5967,9.7286a8,8,0,1,0,4.1113,15.4629l38.1963-10.1537a77.5175,77.5175,0,0,1,1.9764,30.8826L357.14,305.6245a8,8,0,0,0-4.1113,15.4629l40.4961,10.7651C377.69,376.7663,322.0359,410.0342,256,410.0342s-121.69-33.2679-137.5244-78.1817l40.4961-10.7651a8,8,0,0,0-4.1113-15.4629l-40.1727,10.6791a77.5139,77.5139,0,0,1,1.9766-30.8826L154.86,295.5747a8,8,0,0,0,4.1113-15.4629l-36.5969-9.7286q1.2947-2.6224,2.7815-5.2055c8.0478-13.9223,14.7949-29.5732,20.6269-47.8466.011-.0342.0167-.0686.0271-.1028.0537-.1754.0991-.3527.1406-.5316.0191-.082.04-.1637.0557-.2457.0349-.1751.061-.3515.084-.5289.0112-.0855.0244-.1709.0327-.2563.0168-.1737.0245-.3484.03-.5236.0027-.0866.0078-.1732.0077-.2594,0-.1736-.01-.3473-.0218-.5215-.0059-.0859-.0091-.172-.0176-.2574-.0171-.17-.0436-.34-.0718-.5093-.0146-.0884-.0271-.177-.0448-.2646-.0322-.16-.0731-.3194-.1156-.4789-.0256-.0962-.05-.1924-.0789-.2874-.0451-.1471-.0977-.293-.1518-.4389-.0387-.1042-.0772-.2081-.12-.31-.024-.0574-.0414-.116-.0669-.1732a230.18,230.18,0,0,1-19.6026-103.8169l49.5137,30.4732a8,8,0,1,0,8.3867-13.626L122.8086,87.1528a8,8,0,0,0-12.1807,6.37l-.625,11.2754a246.2158,246.2158,0,0,0,19.6243,110.4783,221.7106,221.7106,0,0,1-18.3235,41.8948q-2.5772,4.4593-4.6556,9.0311l-17.8864-4.7547A8,8,0,0,0,84.65,276.9106l16.545,4.3982a93.8271,93.8271,0,0,0-2.0743,39.133L84.65,324.2886a8,8,0,1,0,4.1113,15.4629L102.948,335.98c7.05,20.9227,21.4268,40.0382,42.1643,55.5617C174.8252,413.7847,214.2061,426.0342,256,426.0342s81.1748-12.25,110.8877-34.4922c20.7375-15.5235,35.114-34.639,42.1643-55.5617l14.1863,3.7712a8,8,0,0,0,4.1113-15.4629Z"></path></g></svg>