<svg width="100px" height="100px" fill="#000000" version="1.1" viewBox="0 0 100 100" xmlns="http://www.w3.org/2000/svg">
 <g transform="matrix(1.1851 0 0 1.1851 -9.2531 -1137.9)">
  <path d="m50 962.36c-22.091 0-40 17.909-40 40 0 22.092 17.909 40 40 40 22.092 0 40-17.908 40-40 0-22.091-17.908-40-40-40zm0 16c5.856-0.0751 11.305 3.4204 14.125 8.5 2.316 3.6776 2.672 8.479 0.5 12.375-1.276 2.536-3.089 4.627-5.625 5.875-2.248 1.08-4.312 2.754-5 5.25v4h-8c-0.01202-1.688-0.03199-3.445 0.12481-5.125 0.956-2.876 2.942-5.322 5.25-7.25 2.256-1.656 5.074-2.889 6.25-5.625 1.428-4.0376-1.541-8.8004-5.625-9.75-4.776-1.406-10.21 2.7592-10 7.75h-8c0.4064-3.1876 0.4638-3.3236 0.625-4.5 1.6528-6.8004 8.467-11.61 15.375-11.5zm0 40c2.208 0 4 1.792 4 4s-1.792 4-4 4-4-1.792-4-4 1.792-4 4-4z" fill="#000"/>
 </g>
</svg>
