<svg height='100px' width='100px'  fill="#000000" xmlns="http://www.w3.org/2000/svg" viewBox="0 0 512 512" x="0px" y="0px"><title>Sad-Emoji-Emotion-Face-Expression-Feeling_1</title><path d="M468.41,122.52a43.28,43.28,0,0,0-43.23,43.23v19.69a9.09,9.09,0,0,1-9.09,9.08h-3.23v-10.1A156.41,156.41,0,0,0,366,72.74L377,60a10,10,0,0,0-15.19-13L350.94,59.63A156,156,0,0,0,266,27.88V11a10,10,0,0,0-20,0V27.88a156,156,0,0,0-84.94,31.75L150.19,47A10,10,0,0,0,135,60l11,12.77A156.37,156.37,0,0,0,99.14,184.42v10.1H95.91a9.09,9.09,0,0,1-9.09-9.08V165.75a43.23,43.23,0,0,0-86.46,0v19.69A95.66,95.66,0,0,0,95.91,281h3.23v26.69H93.46a25.81,25.81,0,0,0-25.78,25.78v29.22a25.8,25.8,0,0,0,25.78,25.77h5.41l27.56,93.83A40.23,40.23,0,0,0,164.81,511H347.19a40.23,40.23,0,0,0,38.38-28.73l27.56-93.83h11.69a25.8,25.8,0,0,0,25.77-25.77V333.45a25.81,25.81,0,0,0-25.77-25.78h-12V281h3.23a95.66,95.66,0,0,0,95.55-95.54V165.75A43.28,43.28,0,0,0,468.41,122.52Zm-102,354.11A20.1,20.1,0,0,1,347.19,491H164.81a20.1,20.1,0,0,1-19.19-14.37l-25.91-88.19H392.29Zm64.21-143.18v29.22a5.78,5.78,0,0,1-5.77,5.77H93.46a5.78,5.78,0,0,1-5.78-5.77V333.45a5.78,5.78,0,0,1,5.78-5.78H424.82A5.78,5.78,0,0,1,430.59,333.45Zm61.05-148A75.63,75.63,0,0,1,416.09,261H402.86a10,10,0,0,0-10,10v36.69H119.14V271a10,10,0,0,0-10-10H95.91a75.63,75.63,0,0,1-75.55-75.54V165.75a23.23,23.23,0,1,1,46.46,0v19.69a29.12,29.12,0,0,0,29.09,29.08h13.23a10,10,0,0,0,10-10v-20.1C119.14,109,180.53,47.55,256,47.55S392.86,109,392.86,184.42v20.1a10,10,0,0,0,10,10h13.23a29.12,29.12,0,0,0,29.09-29.08V165.75a23.23,23.23,0,1,1,46.46,0Z"></path><path d="M205.17,172.63a10,10,0,0,0-10,10,7.56,7.56,0,0,1-15.11,0,10,10,0,0,0-20,0,27.56,27.56,0,0,0,55.11,0A10,10,0,0,0,205.17,172.63Z"></path><path d="M341.94,172.63a10,10,0,0,0-10,10,7.56,7.56,0,0,1-15.11,0,10,10,0,0,0-20,0,27.56,27.56,0,0,0,55.11,0A10,10,0,0,0,341.94,172.63Z"></path><path d="M299,238.68c-.35-1.11-9.13-27.28-43-27.28s-42.67,26.17-43,27.28h0a9.87,9.87,0,0,0-.53,3.18,10,10,0,0,0,19.56,3c.68-1.83,5.77-13.42,24-13.42s23.3,11.59,24,13.42a10,10,0,0,0,19.56-3,9.87,9.87,0,0,0-.53-3.18Z"></path></svg>