<svg height='100px' width='100px'  fill="#000000" xmlns="http://www.w3.org/2000/svg" xmlns:xlink="http://www.w3.org/1999/xlink" version="1.1" x="0px" y="0px" viewBox="0 0 100 100" style="enable-background:new 0 0 100 100;" xml:space="preserve"><style type="text/css">
	.st0{fill:none;stroke:#000000;stroke-width:2;stroke-linecap:round;stroke-linejoin:round;stroke-miterlimit:10;}
	.st1{fill:none;stroke:#000000;stroke-width:2;stroke-linecap:round;stroke-miterlimit:10;}
</style><path d="M83.8,37.5c-0.1-1.3-1.7-2.6-10.4-3.7C67.2,33,59,32.6,50.3,32.6c-8.7,0-17,0.4-23.2,1.2c-8.7,1.1-10.3,2.4-10.4,3.7  L8.4,61.1c0,0.1-0.1,0.2-0.1,0.3c0,1.5,1.5,3.2,12.9,4.7c7.8,1,18.1,1.5,29.1,1.5c11,0,21.3-0.5,29.1-1.5  c11.3-1.4,12.9-3.2,12.9-4.7c0-0.1,0-0.2-0.1-0.3L83.8,37.5z M50.3,34.6c17.8,0,29.4,1.8,31.4,3.1c-2,1.3-13.5,3.1-31.4,3.1  c-17.8,0-29.4-1.8-31.4-3.1C20.8,36.3,32.4,34.6,50.3,34.6z M50.3,65.6c-23.6,0-38.3-2.4-39.9-4.2l7.7-21.9c1.4,0.7,4,1.4,9,2.1  c6.2,0.8,14.4,1.2,23.2,1.2c8.7,0,17-0.4,23.2-1.2c5-0.6,7.6-1.3,9-2.1l7.7,21.9C88.5,63.2,73.9,65.6,50.3,65.6z"></path><path d="M61.3,45.7c-2.3,0-4.2,1.6-4.6,3.7H44.1c-0.5-2.1-2.4-3.7-4.6-3.7c-2.6,0-4.7,2.1-4.7,4.7c0,1.1,0.4,2.1,1.1,3  c-0.7,0.8-1.1,1.9-1.1,3c0,2.6,2.1,4.7,4.7,4.7c2.3,0,4.2-1.6,4.6-3.7h12.6c0.5,2.1,2.4,3.7,4.6,3.7c2.6,0,4.7-2.1,4.7-4.7  c0-1.1-0.4-2.1-1.1-3c0.7-0.8,1.1-1.9,1.1-3C66.1,47.8,63.9,45.7,61.3,45.7z M63,54.2c0.7,0.5,1.1,1.3,1.1,2.2  c0,1.5-1.2,2.7-2.7,2.7s-2.7-1.2-2.7-2.7v0c0-0.6-0.4-1-1-1H43.2c-0.6,0-1,0.5-1,1c0,1.5-1.2,2.7-2.7,2.7s-2.7-1.2-2.7-2.7  c0-0.9,0.4-1.7,1.1-2.2c0.3-0.2,0.4-0.5,0.4-0.8c0-0.3-0.1-0.6-0.4-0.8c-0.7-0.5-1.1-1.3-1.1-2.2c0-1.5,1.2-2.7,2.7-2.7  s2.7,1.2,2.7,2.7c0,0.6,0.4,1,1,1h14.4c0.6,0,1-0.4,1-1c0-1.5,1.2-2.7,2.7-2.7s2.7,1.2,2.7,2.7c0,0.9-0.4,1.7-1.1,2.2  c-0.3,0.2-0.4,0.5-0.4,0.8C62.6,53.7,62.7,54,63,54.2z"></path></svg>