<?xml version="1.0" encoding="UTF-8" standalone="no"?>
<svg viewBox="0 0 100 100" y="0px" x="0px" width="100px" height="100px">
  <g>
    <path
      style="stroke:#000000;stroke-opacity:1;fill:none;fill-opacity:1;stroke-width:1.0015748;stroke-miterlimit:4;stroke-dasharray:none"
      d="M75.672,14.256c0,1.104,0.896,2,2,2s2-0.896,2-2C79.672,9.152,75.52,5,70.417,5s-9.256,4.152-9.256,9.256   c0,1.104,0.896,2,2,2s2-0.896,2-2c0-2.898,2.358-5.256,5.256-5.256S75.672,11.358,75.672,14.256z"
    />
    <path
      style="stroke:#000000;stroke-opacity:1;fill:none;fill-opacity:1;stroke-width:1.0015748;stroke-miterlimit:4;stroke-dasharray:none"
      d="M29.59,5c-5.104,0-9.256,4.152-9.256,9.256c0,1.104,0.896,2,2,2s2-0.896,2-2C24.334,11.358,26.692,9,29.59,9   s5.256,2.358,5.256,5.256c0,1.104,0.896,2,2,2s2-0.896,2-2C38.846,9.152,34.694,5,29.59,5z"
    />
    <path
      style="stroke:#000000;stroke-opacity:1;fill:none;fill-opacity:1;stroke-width:1.0015748;stroke-miterlimit:4;stroke-dasharray:none"
      d="M79.345,47.358c-1.104,0-2,0.896-2,2c0,6.974-5.674,12.648-12.648,12.648c-1.556,0-3.074-0.285-4.546-0.861   c-0.288-0.107-0.567-0.231-0.857-0.368c-3.589-1.667-6.203-4.982-7.001-8.914c-0.138-0.606-0.22-1.251-0.245-1.917   c-0.005-0.145-0.028-0.285-0.062-0.42c0.005-0.059,0.018-0.116,0.018-0.177v-7.099h0.362c0,0,3.015-2.583,5.669-5.011   c3.047-2.788,2.775-7.159-0.857-9.449c-0.941-0.593-1.975-0.989-3.061-0.989H45.89c-1.086,0-2.12,0.396-3.061,0.989   c-3.632,2.29-3.904,6.661-0.857,9.449c2.653,2.428,5.669,5.011,5.669,5.011h0.362v7.099c0,0.061,0.013,0.119,0.018,0.179   c-0.032,0.13-0.052,0.265-0.059,0.404c-0.222,5.025-3.411,9.437-8.129,11.24c-0.358,0.138-0.722,0.259-1.091,0.363h-0.19v0.044   c-1.046,0.278-2.126,0.425-3.23,0.425c-6.985,0-12.668-5.678-12.668-12.658c0-1.104-0.896-2-2-2s-2,0.896-2,2   c0,9.185,7.477,16.658,16.668,16.658c1.096,0,2.174-0.113,3.23-0.322v17.869C38.553,89.865,43.688,95,50,95   c6.317,0,11.457-5.135,11.457-11.447V65.677c1.061,0.214,2.143,0.329,3.24,0.329c9.18,0,16.648-7.468,16.648-16.648   C81.345,48.254,80.45,47.358,79.345,47.358z M50,91c-4.106,0-7.447-3.341-7.447-7.447V64.348c2.122-1.022,3.968-2.462,5.45-4.202   v4.304v15.955c0,1.104,0.896,2,2,2s2-0.896,2-2V64.451v-4.353c1.491,1.758,3.334,3.216,5.453,4.226v19.229   C57.457,87.659,54.111,91,50,91z"
    />
    <path
      style="stroke:#000000;stroke-opacity:1;fill:none;fill-opacity:1;stroke-width:1.0015748;stroke-miterlimit:4;stroke-dasharray:none"
      d="M56.79,50.283A2.437,2.437 0,1,1 61.663999999999994,50.283A2.437,2.437 0,1,1 56.79,50.283"
    />
    <path
      style="stroke:#000000;stroke-opacity:1;fill-opacity:1;fill:none;stroke-width:1.0015748;stroke-miterlimit:4;stroke-dasharray:none"
      d="M67.73,50.283A2.437,2.437 0,1,1 72.604,50.283A2.437,2.437 0,1,1 67.73,50.283"
    />
    <path
      style="stroke:#000000;stroke-opacity:1;fill:none;fill-opacity:1;stroke-width:1.0015748;stroke-miterlimit:4;stroke-dasharray:none"
      d="M62.260000000000005,56.737A2.437,2.437 0,1,1 67.134,56.737A2.437,2.437 0,1,1 62.260000000000005,56.737"
    />
    <path
      style="stroke:#000000;stroke-opacity:1;fill:none;fill-opacity:1;stroke-width:1.0015748;stroke-miterlimit:4;stroke-dasharray:none"
      d="M27.192999999999998,50.283A2.437,2.437 0,1,1 32.067,50.283A2.437,2.437 0,1,1 27.192999999999998,50.283"
    />
    <path
      style="stroke:#000000;stroke-opacity:1;fill:none;fill-opacity:1;stroke-width:1.0015748;stroke-miterlimit:4;stroke-dasharray:none"
      d="M38.132000000000005,50.283A2.437,2.437 0,1,1 43.006,50.283A2.437,2.437 0,1,1 38.132000000000005,50.283"
    />
    <path
      style="stroke:#000000;stroke-opacity:1;fill:none;fill-opacity:1;stroke-width:1.0015748;stroke-miterlimit:4;stroke-dasharray:none"
      d="M32.662,56.737A2.437,2.437 0,1,1 37.535999999999994,56.737A2.437,2.437 0,1,1 32.662,56.737"
    />
  </g>
</svg>