<svg height='100px' width='100px'  fill="#000000" xmlns="http://www.w3.org/2000/svg" xmlns:xlink="http://www.w3.org/1999/xlink" version="1.1" x="0px" y="0px" viewBox="0 0 100 100" style="enable-background:new 0 0 100 100;" xml:space="preserve"><g><path d="M30.05,23.158c5.006,0,9.079-4.073,9.079-9.079C39.129,9.073,35.056,5,30.05,5c-5.006,0-9.079,4.073-9.079,9.079   C20.971,19.085,25.044,23.158,30.05,23.158z M30.05,9c2.8,0,5.079,2.278,5.079,5.079c0,0.2-0.036,0.391-0.059,0.585   c-0.669-0.637-1.569-1.033-2.566-1.033c-2.059,0-3.729,1.669-3.729,3.729c0,0.622,0.167,1.199,0.436,1.714   c-2.401-0.403-4.24-2.481-4.24-4.994C24.971,11.278,27.25,9,30.05,9z"></path><path d="M69.957,23.158c5.006,0,9.079-4.073,9.079-9.079C79.035,9.073,74.962,5,69.957,5s-9.079,4.073-9.079,9.079   C60.878,19.085,64.951,23.158,69.957,23.158z M69.957,9c2.8,0,5.079,2.278,5.079,5.079c0,0.074-0.019,0.143-0.022,0.216   c-0.625-0.453-1.386-0.727-2.216-0.727c-2.094,0-3.792,1.698-3.792,3.792c0,0.634,0.17,1.223,0.446,1.748   c-2.56-0.258-4.573-2.4-4.573-5.028C64.878,11.278,67.156,9,69.957,9z"></path><path d="M35.681,66.714c1.052,0,2.088-0.105,3.103-0.301v17.371C38.784,89.969,43.815,95,50,95c6.19,0,11.226-5.031,11.226-11.216   V66.406c1.019,0.201,2.059,0.308,3.112,0.308c8.982,0,16.291-7.308,16.291-16.291c0-1.104-0.896-2-2-2s-2,0.896-2,2   c0,6.777-5.514,12.291-12.291,12.291c-1.512,0-2.987-0.277-4.417-0.837c-0.28-0.104-0.551-0.225-0.833-0.357   c-3.487-1.619-6.027-4.841-6.804-8.662c-0.133-0.589-0.213-1.215-0.238-1.862c-0.005-0.141-0.026-0.278-0.06-0.41   c0.005-0.057,0.017-0.112,0.017-0.17v-6.925h0.305c0,0,2.942-2.52,5.53-4.889c2.972-2.72,2.707-6.984-0.836-9.219   c-0.918-0.579-1.927-0.965-2.986-0.965h-8.025c-1.059,0-2.068,0.386-2.986,0.965c-3.543,2.234-3.809,6.499-0.836,9.219   c2.589,2.369,5.53,4.889,5.53,4.889h0.305v6.925c0,0.058,0.012,0.113,0.017,0.171c-0.031,0.128-0.051,0.26-0.057,0.397   c-0.216,4.883-3.314,9.169-7.899,10.922c-0.413,0.159-0.836,0.288-1.263,0.4h-0.018v0.004c-1.005,0.263-2.043,0.404-3.103,0.404   c-6.788,0-12.31-5.518-12.31-12.3c0-1.104-0.896-2-2-2s-2,0.896-2,2C19.372,59.402,26.688,66.714,35.681,66.714z M48.003,61.076   v4.072c0,1.104,0.896,2,2,2s2-0.896,2-2V61.03c1.438,1.669,3.201,3.055,5.222,4.023v18.732C57.226,87.763,53.984,91,50,91   c-3.979,0-7.216-3.237-7.216-7.216V65.078C44.809,64.097,46.574,62.727,48.003,61.076z"></path><path d="M50.003,82.713c1.104,0,2-0.896,2-2V70.686c0-1.104-0.896-2-2-2s-2,0.896-2,2v10.027   C48.003,81.817,48.899,82.713,50.003,82.713z"></path><circle cx="59.002" cy="51.326" r="2.377"></circle><circle cx="69.674" cy="51.326" r="2.377"></circle><circle cx="64.338" cy="57.622" r="2.377"></circle><circle cx="30.127" cy="51.326" r="2.377"></circle><circle cx="40.799" cy="51.326" r="2.377"></circle><circle cx="35.463" cy="57.622" r="2.377"></circle></g></svg>