<svg height='100px' width='100px'  fill="#000000" xmlns="http://www.w3.org/2000/svg" xmlns:xlink="http://www.w3.org/1999/xlink" version="1.1" x="0px" y="0px" viewBox="0 0 100 100" enable-background="new 0 0 100 100" xml:space="preserve"><g><g><path fill="none" d="M49.994,61.672C49.994,61.672,49.994,61.672,49.994,61.672C49.994,61.672,49.994,61.672,49.994,61.672    c0.001,0,0.001,0,0.001,0c0.001,0,0.002,0,0.003,0c0.21-0.068,0.369-0.18,0.751-0.469c0.034-0.025,0.068-0.053,0.102-0.08    c-0.281-0.016-0.564-0.021-0.853-0.021c-0.003,0-0.006,0-0.009,0c-0.293-0.003-0.572,0.006-0.852,0.021    c0.034,0.027,0.068,0.055,0.102,0.08C49.618,61.49,49.78,61.603,49.994,61.672z"></path><path fill="none" d="M39.927,44.801c-0.798-0.683-1.877-1.058-2.968-1.058c-0.327,0-0.654,0.033-0.976,0.102    c-1.006,0.215-1.909,0.762-2.481,1.503c-0.572,0.74-0.821,1.723-0.651,2.566c0.095,0.472,0.319,0.959,0.666,1.448    c0.888,1.25,3.229,2.296,5.608,1.872c1.134-0.201,2.007-1.583,2.194-2.803C41.521,47.122,40.974,45.697,39.927,44.801z"></path><path fill="none" d="M54.939,12.933c5.644,0.274,11.332,0.637,16.988,1.075c-0.041-0.408-0.082-0.82-0.123-1.235    c-0.102-1.04-0.204-2.08-0.306-3.002c-0.004-0.04-0.009-0.077-0.013-0.111c-3.94-0.869-8.775-1.384-14.776-1.573    c-2.538-0.08-4.924-0.078-6.713-0.089C42.62,8,35.427,8.129,28.515,9.66c-0.004,0.034-0.009,0.071-0.013,0.111    c-0.102,0.922-0.204,1.962-0.306,3.002c-0.041,0.416-0.082,0.827-0.123,1.235c5.656-0.439,11.344-0.802,16.987-1.075    C47.785,12.802,52.216,12.802,54.939,12.933z"></path><path fill="none" d="M26.783,25.654c1.96,0,3.909,0.115,5.828,0.228c1.206,0.071,2.411,0.142,3.612,0.185    c4.764,0.168,22.789,0.168,27.553,0c1.201-0.043,2.407-0.114,3.612-0.185c3.662-0.217,7.442-0.441,11.18,0.146    c0.652-2.643,0.889-5.36,0.702-8.084c-0.003-0.052-0.012-0.178-0.025-0.271c-0.092-0.03-0.272-0.069-0.622-0.101    c-7.885-0.708-15.903-1.261-23.83-1.645c-2.643-0.127-6.946-0.127-9.59,0c-7.927,0.385-15.945,0.938-23.83,1.645    c-0.355,0.032-0.535,0.072-0.626,0.102c-0.008,0.081-0.017,0.215-0.02,0.268c-0.186,2.726,0.05,5.443,0.702,8.085    C23.211,25.749,25.001,25.654,26.783,25.654z"></path><path fill="none" d="M64.018,43.846c-0.322-0.068-0.65-0.102-0.977-0.102c-1.092,0-2.17,0.375-2.968,1.058    c-1.047,0.896-1.594,2.321-1.393,3.629c0.188,1.221,1.06,2.603,2.195,2.805c2.383,0.421,4.719-0.623,5.607-1.873    c0.347-0.49,0.571-0.976,0.666-1.447c0.17-0.843-0.08-1.827-0.651-2.567C65.926,44.608,65.022,44.06,64.018,43.846z"></path><path fill="none" d="M67.566,28.875c-1.23,0.072-2.458,0.145-3.684,0.188c-2.465,0.087-8.173,0.131-13.882,0.131    c-5.708,0-11.417-0.044-13.882-0.131c-1.226-0.043-2.454-0.116-3.684-0.188c-3.118-0.184-6.096-0.353-9.017-0.069    c1.474,18.646,4.246,34.123,7.448,51.973c0.403,2.249,0.814,4.537,1.23,6.875c0.079,0.442,0.16,0.9,0.336,1.142    c0.162,0.223,0.492,0.443,1.01,0.676c3.688,1.655,9.412,2.53,16.554,2.53c0.002,0,0.003,0,0.005,0c0.002,0,0.003,0,0.005,0    c7.142,0,12.866-0.874,16.554-2.53c0.518-0.233,0.849-0.454,1.011-0.676c0.176-0.242,0.258-0.7,0.337-1.142    c0.415-2.335,0.825-4.621,1.228-6.867c3.202-17.853,5.974-33.333,7.449-51.981C73.662,28.523,70.685,28.69,67.566,28.875z     M38.055,54.325c-2.799,0-5.569-1.235-6.983-3.227c-0.592-0.834-0.983-1.707-1.16-2.592c-0.342-1.694,0.113-3.56,1.217-4.99    c1.013-1.313,2.514-2.237,4.227-2.602c2.324-0.5,4.762,0.104,6.52,1.609c1.817,1.556,2.761,4.054,2.406,6.364    c-0.34,2.216-1.936,4.821-4.634,5.299C39.122,54.28,38.588,54.324,38.055,54.325z M60.114,68.859    c-0.306,1.706-1.809,3.107-3.829,3.57c-0.506,0.115-1.01,0.173-1.502,0.173c-0.774,0-1.521-0.142-2.21-0.423    c-1.014-0.413-1.896-1.135-2.578-2.073c-0.682,0.938-1.564,1.66-2.578,2.073c-0.689,0.281-1.436,0.423-2.21,0.423    c-0.492,0-0.995-0.057-1.5-0.172c-2.021-0.464-3.523-1.864-3.83-3.57c-0.147-0.815,0.395-1.594,1.21-1.741    c0.812-0.143,1.594,0.395,1.741,1.21c0.101,0.563,0.855,1.019,1.548,1.178c0.685,0.156,1.364,0.119,1.911-0.103    c0.845-0.344,1.563-1.212,1.921-2.321c0.149-0.461,0.236-1.7,0.271-2.804c-0.365-0.184-0.685-0.412-1.046-0.685    c-0.641-0.486-1.222-1.113-1.827-1.977c-0.862-1.229-0.322-2.177-0.136-2.439c0.464-0.654,1.181-0.773,1.417-0.812    c1.116-0.184,2.07-0.258,3.111-0.263c1.057-0.016,1.995,0.078,3.11,0.262c0.238,0.04,0.955,0.16,1.419,0.816    c0.184,0.259,0.724,1.207-0.138,2.436c-0.604,0.862-1.185,1.49-1.827,1.977c-0.362,0.273-0.682,0.501-1.047,0.686    c0.038,1.179,0.134,2.374,0.272,2.802c0.358,1.11,1.075,1.977,1.92,2.322c0.548,0.223,1.228,0.261,1.914,0.102    c0.69-0.158,1.444-0.613,1.545-1.176c0.146-0.816,0.928-1.351,1.741-1.211C59.718,67.265,60.26,68.045,60.114,68.859z     M70.088,48.506c-0.178,0.885-0.569,1.757-1.161,2.591c-1.413,1.992-4.184,3.227-6.982,3.227c-0.533,0-1.066-0.045-1.592-0.138    c-2.699-0.479-4.294-3.084-4.635-5.3c-0.356-2.31,0.588-4.808,2.406-6.364c1.732-1.482,4.23-2.099,6.521-1.609    c1.712,0.365,3.213,1.289,4.227,2.602C69.974,44.944,70.429,46.81,70.088,48.506z"></path><path d="M44.282,48.887c0.356-2.31-0.588-4.808-2.406-6.364c-1.758-1.505-4.196-2.109-6.52-1.609    c-1.713,0.365-3.214,1.289-4.227,2.602c-1.104,1.43-1.559,3.296-1.217,4.99c0.178,0.885,0.568,1.758,1.16,2.592    c1.413,1.992,4.184,3.227,6.983,3.227c0.533-0.001,1.067-0.045,1.593-0.139C42.347,53.708,43.942,51.103,44.282,48.887z     M41.319,48.431c-0.187,1.22-1.06,2.602-2.194,2.803c-2.379,0.425-4.72-0.622-5.608-1.872c-0.347-0.489-0.571-0.976-0.666-1.448    c-0.17-0.842,0.08-1.826,0.651-2.566c0.571-0.741,1.475-1.288,2.481-1.503c0.322-0.069,0.649-0.102,0.976-0.102    c1.091,0,2.17,0.375,2.968,1.058C40.974,45.697,41.521,47.122,41.319,48.431z"></path><path d="M64.644,40.914c-2.291-0.49-4.789,0.127-6.521,1.609c-1.817,1.556-2.761,4.054-2.406,6.364    c0.341,2.216,1.937,4.821,4.635,5.3c0.526,0.093,1.059,0.138,1.592,0.138c2.798,0,5.569-1.235,6.982-3.227    c0.592-0.834,0.983-1.706,1.161-2.591c0.341-1.696-0.114-3.562-1.217-4.991C67.857,42.203,66.356,41.279,64.644,40.914z     M67.149,47.915c-0.095,0.471-0.319,0.957-0.666,1.447c-0.888,1.25-3.224,2.293-5.607,1.873c-1.135-0.202-2.007-1.584-2.195-2.805    c-0.202-1.309,0.345-2.733,1.393-3.629c0.798-0.683,1.876-1.058,2.968-1.058c0.327,0,0.655,0.034,0.977,0.102    c1.005,0.215,1.908,0.762,2.48,1.503C67.069,46.088,67.319,47.072,67.149,47.915z"></path><path d="M58.903,67.119c-0.812-0.14-1.594,0.395-1.741,1.211c-0.101,0.563-0.855,1.018-1.545,1.176    c-0.686,0.158-1.366,0.12-1.914-0.102c-0.845-0.344-1.562-1.212-1.92-2.322c-0.138-0.429-0.234-1.623-0.272-2.802    c0.365-0.184,0.685-0.412,1.047-0.686c0.643-0.487,1.224-1.115,1.827-1.977c0.862-1.229,0.322-2.177,0.138-2.436    c-0.465-0.656-1.181-0.776-1.419-0.816c-1.115-0.183-2.053-0.277-3.11-0.262c-1.041,0.005-1.995,0.078-3.111,0.263    c-0.236,0.039-0.953,0.158-1.417,0.812c-0.186,0.262-0.726,1.21,0.136,2.439c0.606,0.864,1.186,1.491,1.827,1.977    c0.361,0.273,0.681,0.501,1.046,0.685c-0.035,1.104-0.122,2.343-0.271,2.804c-0.357,1.109-1.075,1.976-1.921,2.321    c-0.547,0.223-1.226,0.26-1.911,0.103c-0.692-0.159-1.446-0.615-1.548-1.178c-0.147-0.815-0.929-1.354-1.741-1.21    c-0.815,0.147-1.356,0.926-1.21,1.741c0.307,1.706,1.809,3.106,3.83,3.57c0.506,0.115,1.009,0.172,1.5,0.172    c0.774,0,1.521-0.142,2.21-0.423c1.014-0.413,1.895-1.135,2.578-2.073c0.682,0.938,1.564,1.66,2.578,2.073    c0.689,0.281,1.436,0.423,2.21,0.423c0.492,0,0.996-0.058,1.502-0.173c2.02-0.463,3.522-1.864,3.829-3.57    C60.26,68.045,59.718,67.265,58.903,67.119z M49.99,61.101c0.003,0,0.006,0,0.009,0c0.289,0,0.572,0.006,0.853,0.021    c-0.034,0.027-0.068,0.055-0.102,0.08c-0.382,0.29-0.541,0.401-0.751,0.469c-0.001,0-0.002,0-0.003,0c0,0,0,0,0,0s0,0,0,0    c0,0,0,0,0,0c-0.214-0.069-0.376-0.183-0.754-0.469c-0.034-0.025-0.068-0.053-0.102-0.08    C49.418,61.107,49.696,61.098,49.99,61.101z"></path><path d="M82.263,17.74c-0.033-0.479-0.093-1.036-0.399-1.586c-0.762-1.37-2.309-1.509-2.971-1.568    c-1.304-0.117-2.617-0.223-3.927-0.332c-0.059-0.579-0.118-1.173-0.178-1.775c-0.103-1.052-0.207-2.105-0.31-3.038    c-0.054-0.492-0.168-1.515-1.039-2.178c-0.444-0.338-0.92-0.444-1.205-0.507c-4.143-0.923-9.19-1.469-15.43-1.665    C54.223,5.009,51.822,4.998,49.995,5c-7.583,0.002-14.99,0.138-22.229,1.756c-0.284,0.063-0.761,0.17-1.205,0.507    c-0.871,0.664-0.985,1.686-1.039,2.178c-0.103,0.933-0.207,1.986-0.31,3.038c-0.059,0.602-0.118,1.196-0.178,1.775    c-1.311,0.109-2.623,0.215-3.928,0.332c-0.661,0.06-2.208,0.198-2.969,1.566c-0.307,0.551-0.368,1.109-0.401,1.587    c-0.223,3.262,0.098,6.513,0.953,9.663c0.233,0.858,0.917,1.464,1.739,1.649c1.485,18.787,4.268,34.331,7.484,52.257    c0.403,2.247,0.813,4.534,1.229,6.87c0.119,0.668,0.281,1.58,0.864,2.381c0.636,0.874,1.564,1.358,2.207,1.646    C37.356,94.516,44.722,95,49.995,95c0.002,0,0.003,0,0.005,0c0.002,0,0.003,0,0.005,0c5.273,0,12.639-0.484,17.781-2.792    c0.643-0.289,1.572-0.773,2.207-1.647c0.583-0.801,0.745-1.714,0.864-2.381c0.415-2.334,0.825-4.618,1.227-6.863    c3.216-17.928,5.999-33.473,7.485-52.262c0.823-0.184,1.507-0.792,1.74-1.652C82.165,24.253,82.485,21.002,82.263,17.74z     M28.195,12.773c0.102-1.04,0.204-2.08,0.306-3.002c0.004-0.04,0.009-0.077,0.013-0.111C35.427,8.129,42.62,8,49.996,7.998    c1.789,0.011,4.175,0.009,6.713,0.089c6.001,0.189,10.836,0.705,14.776,1.573c0.004,0.034,0.009,0.071,0.013,0.111    c0.102,0.922,0.204,1.962,0.306,3.002c0.041,0.416,0.082,0.827,0.123,1.235c-5.656-0.439-11.344-0.802-16.988-1.075    c-2.724-0.131-7.155-0.131-9.879,0c-5.644,0.274-11.332,0.637-16.987,1.075C28.113,13.6,28.154,13.189,28.195,12.773z     M20.729,17.943c0.003-0.054,0.013-0.187,0.02-0.268c0.091-0.03,0.271-0.07,0.626-0.102c7.886-0.708,15.904-1.261,23.83-1.645    c2.644-0.127,6.947-0.127,9.59,0c7.927,0.385,15.945,0.938,23.83,1.645c0.349,0.031,0.53,0.07,0.622,0.101    c0.013,0.094,0.021,0.22,0.025,0.271c0.186,2.725-0.05,5.442-0.702,8.084c-3.739-0.587-7.519-0.363-11.18-0.146    c-1.206,0.071-2.411,0.142-3.612,0.185c-4.764,0.168-22.789,0.168-27.553,0c-1.201-0.043-2.407-0.114-3.612-0.185    c-1.918-0.113-3.868-0.228-5.828-0.228c-1.782,0-3.573,0.095-5.353,0.375C20.779,23.386,20.542,20.669,20.729,17.943z     M69.134,80.787c-0.403,2.247-0.813,4.532-1.228,6.867c-0.079,0.442-0.161,0.9-0.337,1.142c-0.162,0.223-0.492,0.443-1.011,0.676    c-3.687,1.655-9.412,2.53-16.554,2.53c-0.002,0-0.003,0-0.005,0c-0.002,0-0.003,0-0.005,0c-7.142,0-12.866-0.874-16.554-2.53    c-0.518-0.233-0.849-0.454-1.01-0.676c-0.176-0.242-0.258-0.7-0.336-1.142c-0.416-2.338-0.827-4.626-1.23-6.875    c-3.202-17.85-5.974-33.327-7.448-51.973c2.921-0.284,5.899-0.115,9.017,0.069c1.23,0.072,2.458,0.145,3.684,0.188    c2.465,0.087,8.174,0.131,13.882,0.131c5.709,0,11.417-0.044,13.882-0.131c1.226-0.043,2.454-0.116,3.684-0.188    c3.118-0.185,6.096-0.353,9.016-0.069C75.108,47.454,72.336,62.934,69.134,80.787z"></path></g></g></svg>