<svg height='100px' width='100px'  fill="#000000" xmlns="http://www.w3.org/2000/svg" xmlns:xlink="http://www.w3.org/1999/xlink" version="1.1" x="0px" y="0px" viewBox="0 0 100 100" style="enable-background:new 0 0 100 100;" xml:space="preserve"><g><circle cx="29.586" cy="12.243" r="7.243"></circle><circle cx="70.421" cy="12.243" r="7.243"></circle><path d="M35.348,66.056c1.093,0,2.168-0.112,3.222-0.32V83.57C38.57,89.873,43.697,95,50,95c6.308,0,11.44-5.127,11.44-11.43   V65.729c1.058,0.213,2.137,0.328,3.231,0.328c9.166,0,16.623-7.457,16.623-16.623c0-1.104-0.896-2-2-2s-2,0.896-2,2   c0,6.96-5.663,12.623-12.623,12.623c-1.554,0-3.068-0.285-4.536-0.859c-0.288-0.107-0.567-0.231-0.857-0.368   c-3.582-1.664-6.19-4.973-6.987-8.896c-0.137-0.604-0.219-1.248-0.244-1.913c-0.005-0.143-0.028-0.282-0.062-0.416   c0.005-0.06,0.018-0.118,0.018-0.179v-7.086h0.358c0,0,3.01-2.578,5.659-5.002c3.042-2.783,2.77-7.147-0.856-9.433   c-0.939-0.592-1.972-0.987-3.056-0.987h-8.212c-1.084,0-2.116,0.395-3.056,0.987c-3.625,2.286-3.897,6.65-0.856,9.433   c2.649,2.424,5.659,5.002,5.659,5.002h0.358v7.086c0,0.061,0.013,0.119,0.018,0.179c-0.032,0.13-0.053,0.265-0.059,0.403   c-0.222,5.015-3.404,9.417-8.113,11.218c-0.363,0.14-0.731,0.261-1.104,0.366H38.57v0.041c-1.043,0.276-2.12,0.423-3.222,0.423   c-6.971,0-12.643-5.667-12.643-12.632c0-1.104-0.896-2-2-2s-2,0.896-2,2C18.706,58.595,26.171,66.056,35.348,66.056z    M48.003,60.212V64.5c0,1.104,0.896,2,2,2s2-0.896,2-2v-4.337c1.487,1.752,3.325,3.205,5.437,4.212V83.57   c0,4.097-3.337,7.43-7.44,7.43c-4.097,0-7.43-3.333-7.43-7.43V64.4C44.685,63.381,46.525,61.945,48.003,60.212z"></path><path d="M50.003,82.427c1.104,0,2-0.896,2-2v-10.26c0-1.104-0.896-2-2-2s-2,0.896-2,2v10.26   C48.003,81.532,48.899,82.427,50.003,82.427z"></path><circle cx="59.211" cy="50.356" r="2.433"></circle><circle cx="70.132" cy="50.356" r="2.433"></circle><circle cx="64.672" cy="56.8" r="2.433"></circle><circle cx="29.665" cy="50.356" r="2.433"></circle><circle cx="40.585" cy="50.356" r="2.433"></circle><circle cx="35.125" cy="56.8" r="2.433"></circle></g></svg>