<svg width="100px" height="100px" fill="#000000" version="1.1" viewBox="0 0 24 24" xmlns="http://www.w3.org/2000/svg">
 <g fill="#000">
  <path transform="translate(15.5 8.5) rotate(45) translate(-15.5 -8.5)" d="m14.5 2.136c0-0.55228 0.44772-1 1-1s1 0.44772 1 1v12.728c0 0.55228-0.44772 1-1 1s-1-0.44772-1-1v-12.728z"/>
  <path d="m19 5h-4c-0.55228 0-1-0.44772-1-1s0.44772-1 1-1h5c0.55228 0 1 0.44772 1 1v5c0 0.55228-0.44772 1-1 1s-1-0.44772-1-1v-4z"/>
  <path d="m17 13.5c0-0.55228 0.44772-1 1-1 0.55228 0 1 0.44772 1 1v5.625c0 1.5878-1.2872 2.875-2.875 2.875h-11.25c-1.5878 0-2.875-1.2872-2.875-2.875l2.32e-6 -11.25c0-1.5878 1.2872-2.875 2.875-2.875 4.0319 3.16e-6 4.0319 3.16e-6 6.0938 3.79e-6 0.55228 0 1 0.44772 1 1s-0.44772 1-1 1c-2.0618-6.3e-7 -2.0618-6.3e-7 -6.0938-3.79e-6 -0.48325 0-0.875 0.39175-0.875 0.87499l-2.32e-6 11.25c0 0.48325 0.39175 0.875 0.875 0.875h11.25c0.48325 0 0.875-0.39175 0.875-0.875v-5.625z"/>
 </g>
</svg>
