<svg height='100px' width='100px'  fill="#000000" xmlns="http://www.w3.org/2000/svg" viewBox="0 0 512 512" x="0px" y="0px"><title>Dog</title><g><path d="M342.53,325.252l10.1665-50.1728c4.3725-21.5791,8.2627-38.0069,12.6118-53.2637a113.6518,113.6518,0,1,0-218.9058-1.03c3.5728,12.999,7.6558,28.41,10.8462,44.1572l12.2207,60.31a88.2889,88.2889,0,0,0,173.0606,0ZM256,380.0069a72.5158,72.5158,0,0,1-70.8486-57.9326l-12.2207-60.31c-3.2867-16.2188-7.4556-31.9609-11.1-45.22a97.9537,97.9537,0,0,1-3.4815-26.2969,98.0119,98.0119,0,0,1,97.6558-97.2949c.3115,0,.6264.0019.9385.0049a97.7347,97.7347,0,0,1,92.9785,124.4707c-4.4678,15.6718-8.4483,32.4716-12.9068,54.4726l-10.1665,50.1729A72.5158,72.5158,0,0,1,256,380.0069Z"></path><path d="M435.2617,346.8907,403.1973,142.4971a7.97,7.97,0,0,0-.2632-1.1318c-12.5635-40.4629-53.5742-48.207-55.314-48.5166a8,8,0,0,0-2.833,15.7471c1.3447.249,32.8677,6.4248,42.6968,36.9765l31.9712,203.7988a60.3256,60.3256,0,0,1-59.5967,69.6748H336.0537a21.8048,21.8048,0,0,1-21.78-21.78,8,8,0,0,0-16,0,37.8232,37.8232,0,0,0,37.78,37.78h23.8047a76.3255,76.3255,0,0,0,75.4033-88.1552Z"></path><path d="M205.7266,389.2657a8,8,0,0,0-8,8,21.8048,21.8048,0,0,1-21.78,21.78H152.1416a60.3256,60.3256,0,0,1-59.5967-69.6748l31.9712-203.7988c9.81-30.4892,41.2241-36.7021,42.688-36.9746a8,8,0,0,0-2.8242-15.749c-1.74.31-42.75,8.0537-55.314,48.5166a7.97,7.97,0,0,0-.2632,1.1318L76.7383,346.8907a76.3255,76.3255,0,0,0,75.4033,88.1552h23.8047a37.8232,37.8232,0,0,0,37.78-37.78A8,8,0,0,0,205.7266,389.2657Z"></path><path d="M267.0332,274.9786H244.9668a23.6645,23.6645,0,0,0-18.5933,38.3027l11.0337,14.0127A23.5561,23.5561,0,0,0,248,334.9385v27.669a8,8,0,1,0,16,0V334.9386a23.5594,23.5594,0,0,0,10.5928-7.6436L285.6265,313.28a23.6639,23.6639,0,0,0-18.5933-38.3017Zm6.022,28.4043-11.0337,14.0136v.001a7.6631,7.6631,0,0,1-12.043-.001l-11.0337-14.0127a7.6645,7.6645,0,0,1,6.022-12.4052h22.0664a7.664,7.664,0,0,1,6.022,12.4043Z"></path><circle cx="211.3058" cy="220.8213" r="12.9136" transform="translate(-20.82 22.0002) rotate(-5.6806)"></circle><circle cx="300.6943" cy="220.8213" r="12.9136" transform="translate(33.9643 481.6551) rotate(-80.6522)"></circle></g></svg>