<svg height='100px' width='100px'  fill="#000000" xmlns="http://www.w3.org/2000/svg" xmlns:xlink="http://www.w3.org/1999/xlink" version="1.1" x="0px" y="0px" viewBox="0 0 63.934 63.934" style="enable-background:new 0 0 63.934 63.934;" xml:space="preserve"><g><path d="M55.236,41.88C55.236,41.88,55.236,41.88,55.236,41.88c0.476-1.883,0.731-3.852,0.731-5.88c0-1.37-0.129-2.719-0.355-4.04   c-0.007-0.033,0-0.066-0.011-0.1c-0.002-0.008-0.008-0.012-0.011-0.02c-0.827-4.702-3.032-9.01-6.279-12.411   c-0.001-0.002-0.001-0.003-0.002-0.005c-0.006-0.009-0.016-0.012-0.022-0.021c-1.951-2.038-4.273-3.743-6.896-5.01   c0.208-0.678,0.37-1.347,0.467-1.995c0.166,0.077,0.335,0.141,0.5,0.222c0.141,0.068,0.29,0.101,0.437,0.101   c0.371,0,0.727-0.207,0.9-0.562c0.241-0.496,0.035-1.095-0.462-1.337c-0.429-0.209-0.867-0.391-1.304-0.577   C42.538,4.532,37.777,0,31.967,0S21.396,4.532,21.005,10.245c-0.436,0.186-0.874,0.368-1.304,0.577   c-0.497,0.242-0.703,0.841-0.462,1.337c0.174,0.355,0.529,0.562,0.9,0.562c0.146,0,0.296-0.032,0.437-0.101   c0.165-0.08,0.334-0.145,0.5-0.222c0.097,0.648,0.259,1.316,0.467,1.995c-3.125,1.509-5.824,3.641-7.975,6.214   c-0.028,0.034-0.059,0.063-0.082,0.1c-3.49,4.221-5.52,9.59-5.52,15.292c0,6.523,2.62,12.444,6.858,16.774   c0.064,0.094,0.144,0.174,0.234,0.24C19.4,57.329,25.377,60,31.967,60C43.172,60,52.606,52.28,55.236,41.88z M43.613,25.224   c0.003-0.656,2.535-2.389,3.896-3.319c0.281-0.192,0.559-0.388,0.84-0.583c2.555,2.855,4.339,6.349,5.138,10.149   c-3.051,0.861-4.016,0.424-4.249,0.254c-0.082-0.06-0.272-0.199-0.272-0.725c0-1.812-1.577-2.915-3.103-3.981   c-0.759-0.53-1.544-1.079-2.19-1.726C43.631,25.25,43.615,25.224,43.613,25.224z M31.967,2c4.963,0,9,4.037,9,9   c0,5.455-6.727,13.811-9,16.479c-2.273-2.668-9-11.023-9-16.479C22.967,6.037,27.004,2,31.967,2z M35.967,29c0,0.944-1.711,2-4,2   s-4-1.056-4-2c0-0.54,0.553-1.099,1.419-1.487c1.013,1.243,1.734,2.043,1.841,2.16C31.416,29.881,31.685,30,31.967,30   s0.551-0.119,0.74-0.327c0.107-0.118,0.828-0.917,1.841-2.16C35.414,27.901,35.967,28.46,35.967,29z M22.229,16.282   c1.459,3.486,3.911,7.052,5.891,9.63c-1.351,0.74-2.154,1.851-2.154,3.088c0,2.243,2.636,4,6,4s6-1.757,6-4   c0-1.237-0.803-2.348-2.154-3.088c1.98-2.578,4.432-6.145,5.891-9.63c1.932,0.955,3.681,2.171,5.217,3.597   c-0.181,0.124-0.36,0.251-0.54,0.374c-2.574,1.761-4.607,3.151-4.759,4.784c-0.04,0.431,0.038,1.07,0.638,1.67   c0.771,0.771,1.667,1.397,2.458,1.95c1.207,0.844,2.249,1.572,2.249,2.343c0,1.275,0.595,1.977,1.094,2.341   c0.591,0.431,1.393,0.646,2.417,0.646c0.922,0,2.033-0.181,3.328-0.532c0.098,0.839,0.162,1.686,0.162,2.544   c0,1.682-0.196,3.318-0.555,4.893c-3.236,0.581-7.719-0.581-9.738-2.6c-0.934-0.934-1.832-1.23-2.661-0.886   c-1.896,0.785-2.046,4.638-2.046,9.593c0,2.533-1.146,4-7,4c-1.653,0-2.559,0.736-3.027,1.354c-1.04,1.369-0.988,3.462-0.63,5.336   c-4.037-0.679-7.702-2.46-10.678-5.023c1.961-0.636,4.201-1.567,5.935-2.867c0.838-0.628,1.796-1.492,1.775-2.616   c-0.021-1.124-0.979-1.788-1.823-2.374c-0.938-0.65-1.552-1.127-1.552-1.81c0-0.784,0.085-0.806,1.126-1.063   c1.01-0.249,2.536-0.626,3.706-2.382c0.745-1.117,0.695-2.104,0.521-2.734c-0.592-2.161-3.428-3.521-5.304-4.422   c-0.221-0.105-0.424-0.203-0.603-0.293l-0.441-0.215c-1.493-0.718-2.315-1.113-4.044-7.165c-0.35-1.227-0.818-2.351-1.382-3.365   C17.396,19.285,19.655,17.554,22.229,16.282z M14.178,23.074c0.322,0.683,0.602,1.414,0.827,2.201   c1.893,6.622,2.991,7.403,5.102,8.419l0.413,0.201c0.188,0.094,0.401,0.196,0.632,0.307c1.359,0.652,3.89,1.866,4.24,3.147   c0.06,0.217,0.098,0.565-0.257,1.097c-0.739,1.109-1.605,1.323-2.521,1.55c-1.054,0.261-2.646,0.654-2.646,3.005   c0,1.78,1.395,2.747,2.412,3.453c0.336,0.233,0.897,0.623,0.964,0.752c-0.001,0.003-0.07,0.315-0.976,0.995   c-1.836,1.378-4.39,2.307-6.395,2.882C12.254,47.14,9.967,41.834,9.967,36C9.967,31.254,11.502,26.759,14.178,23.074z M31.967,58   c-0.525,0-1.045-0.025-1.561-0.062c-0.475-2.022-0.437-3.633,0.126-4.375C30.716,53.321,31.064,53,31.967,53c4.45,0,9-0.713,9-6   c0-1.711,0-6.824,0.778-7.7c0.087,0.043,0.257,0.149,0.515,0.407c2.509,2.508,7.079,3.588,10.565,3.273   C49.9,51.699,41.658,58,31.967,58z"></path><path d="M30.122,61.937c-1.256-0.089-2.512-0.269-3.735-0.535c-0.538-0.127-1.072,0.225-1.189,0.764   c-0.118,0.539,0.224,1.072,0.764,1.189c1.316,0.288,2.67,0.481,4.021,0.576c0.024,0.002,0.048,0.003,0.071,0.003   c0.521,0,0.96-0.403,0.996-0.93C31.088,62.453,30.673,61.975,30.122,61.937z"></path><path d="M13.364,54.164c-0.387-0.396-1.02-0.402-1.414-0.018c-0.396,0.386-0.403,1.019-0.018,1.414   c0.944,0.968,1.968,1.874,3.041,2.695c0.182,0.138,0.395,0.205,0.606,0.205c0.301,0,0.599-0.135,0.796-0.393   c0.335-0.438,0.251-1.066-0.188-1.402C15.191,55.904,14.241,55.062,13.364,54.164z"></path><path d="M22.769,60.326c-1.174-0.443-2.325-0.979-3.424-1.589c-0.482-0.27-1.092-0.094-1.359,0.389   c-0.269,0.482-0.095,1.091,0.389,1.359c1.183,0.657,2.423,1.233,3.686,1.712c0.117,0.044,0.236,0.064,0.354,0.064   c0.403,0,0.784-0.246,0.936-0.646C23.545,61.1,23.284,60.522,22.769,60.326z"></path><path d="M49.572,16.867c0.192,0.177,0.436,0.265,0.678,0.265c0.27,0,0.538-0.108,0.735-0.322c0.374-0.406,0.349-1.039-0.058-1.413   c-0.992-0.914-2.062-1.766-3.181-2.53c-0.457-0.311-1.078-0.193-1.391,0.262c-0.312,0.456-0.194,1.078,0.262,1.391   C47.657,15.228,48.651,16.019,49.572,16.867z"></path><path d="M54.319,22.71c0.188,0.314,0.52,0.488,0.86,0.488c0.174,0,0.351-0.045,0.511-0.141c0.475-0.283,0.63-0.896,0.348-1.371   c-0.69-1.158-1.474-2.279-2.327-3.33c-0.347-0.43-0.978-0.495-1.406-0.146c-0.43,0.349-0.494,0.978-0.146,1.406   C52.951,20.594,53.679,21.635,54.319,22.71z"></path><path d="M8.936,48.079c-0.257-0.489-0.862-0.676-1.351-0.419s-0.677,0.861-0.419,1.351c0.629,1.194,1.351,2.354,2.146,3.447   c0.195,0.27,0.5,0.412,0.81,0.412c0.204,0,0.41-0.062,0.587-0.191c0.447-0.325,0.546-0.95,0.221-1.396   C10.19,50.267,9.52,49.189,8.936,48.079z"></path><path d="M13.629,17.184c0.243,0,0.487-0.088,0.68-0.267c0.922-0.854,1.914-1.646,2.947-2.356c0.455-0.312,0.57-0.936,0.258-1.391   c-0.313-0.455-0.935-0.57-1.391-0.258c-1.112,0.765-2.181,1.618-3.174,2.538c-0.405,0.375-0.43,1.008-0.055,1.413   C13.092,17.076,13.36,17.184,13.629,17.184z"></path><path d="M56.009,26.083c0.479,1.159,0.876,2.364,1.182,3.581c0.113,0.454,0.521,0.757,0.969,0.757c0.081,0,0.162-0.01,0.244-0.03   c0.535-0.134,0.861-0.677,0.727-1.213c-0.328-1.312-0.756-2.609-1.271-3.858c-0.212-0.511-0.797-0.75-1.307-0.543   C56.041,24.987,55.799,25.572,56.009,26.083z"></path><path d="M7.43,44.62c-0.415-1.181-0.747-2.406-0.987-3.641c-0.105-0.543-0.631-0.895-1.172-0.791   c-0.542,0.105-0.896,0.63-0.791,1.172c0.258,1.331,0.616,2.65,1.063,3.924c0.145,0.411,0.53,0.668,0.943,0.668   c0.11,0,0.222-0.018,0.332-0.057C7.339,45.713,7.613,45.142,7.43,44.62z"></path><path d="M8.206,23.125c0.16,0.095,0.336,0.14,0.509,0.14c0.342,0,0.675-0.175,0.861-0.49c0.638-1.076,1.362-2.12,2.153-3.101   c0.347-0.43,0.279-1.06-0.15-1.406c-0.431-0.349-1.06-0.279-1.406,0.15c-0.852,1.056-1.631,2.179-2.317,3.337   C7.574,22.23,7.731,22.844,8.206,23.125z"></path><path d="M5.042,38.28c0.552-0.025,0.979-0.493,0.953-1.045C5.977,36.826,5.967,36.414,5.967,36c0-0.848,0.041-1.702,0.122-2.539   c0.054-0.55-0.349-1.039-0.898-1.092c-0.561-0.053-1.039,0.35-1.092,0.898C4.011,34.169,3.967,35.088,3.967,36   c0,0.445,0.01,0.887,0.03,1.327c0.024,0.536,0.467,0.954,0.998,0.954C5.011,38.281,5.026,38.281,5.042,38.28z"></path><path d="M5.515,30.471C5.596,30.49,5.676,30.5,5.756,30.5c0.449,0,0.857-0.305,0.97-0.76c0.301-1.217,0.695-2.424,1.172-3.587   c0.209-0.511-0.035-1.095-0.547-1.305c-0.508-0.208-1.094,0.036-1.305,0.547c-0.513,1.253-0.938,2.553-1.262,3.864   C4.651,29.796,4.979,30.338,5.515,30.471z"></path><path d="M59.826,33.184c-0.055-0.551-0.552-0.943-1.094-0.896c-0.55,0.055-0.951,0.545-0.896,1.094   c0.086,0.864,0.13,1.745,0.131,2.619c0,0.387-0.009,0.771-0.025,1.155c-0.024,0.552,0.403,1.019,0.955,1.043   c0.015,0.001,0.03,0.001,0.045,0.001c0.532,0,0.975-0.419,0.998-0.956c0.019-0.413,0.027-0.827,0.027-1.244   C59.966,35.059,59.919,34.111,59.826,33.184z"></path><path d="M37.629,61.382c-1.22,0.271-2.476,0.456-3.732,0.548c-0.551,0.04-0.965,0.52-0.924,1.07   c0.038,0.525,0.477,0.927,0.996,0.927c0.024,0,0.049-0.001,0.074-0.003c1.353-0.099,2.705-0.297,4.02-0.589   c0.539-0.12,0.879-0.654,0.76-1.193C38.701,61.603,38.167,61.269,37.629,61.382z"></path><path d="M44.655,58.7c-1.096,0.612-2.244,1.15-3.414,1.597c-0.517,0.197-0.774,0.775-0.578,1.291   c0.152,0.398,0.532,0.644,0.935,0.644c0.119,0,0.239-0.021,0.356-0.065c1.261-0.481,2.498-1.061,3.678-1.722   c0.482-0.27,0.654-0.879,0.385-1.36C45.746,58.603,45.137,58.429,44.655,58.7z"></path><path d="M58.675,40.108c-0.551-0.104-1.066,0.254-1.17,0.795c-0.235,1.235-0.563,2.461-0.976,3.644   c-0.182,0.521,0.094,1.092,0.615,1.273c0.109,0.038,0.22,0.056,0.329,0.056c0.414,0,0.801-0.259,0.944-0.671   c0.444-1.275,0.798-2.597,1.052-3.927C59.573,40.735,59.217,40.212,58.675,40.108z"></path><path d="M56.383,47.587c-0.493-0.257-1.094-0.064-1.35,0.424c-0.581,1.113-1.248,2.194-1.984,3.211   c-0.323,0.447-0.223,1.072,0.225,1.396c0.177,0.128,0.382,0.189,0.585,0.189c0.311,0,0.615-0.144,0.812-0.414   c0.792-1.095,1.511-2.258,2.137-3.457C57.062,48.446,56.872,47.843,56.383,47.587z"></path><path d="M50.621,54.112c-0.873,0.899-1.821,1.744-2.816,2.51c-0.438,0.337-0.52,0.965-0.184,1.402   c0.197,0.257,0.494,0.391,0.794,0.391c0.213,0,0.427-0.067,0.608-0.207c1.072-0.825,2.093-1.734,3.033-2.703   c0.385-0.396,0.375-1.029-0.021-1.414S51.006,53.716,50.621,54.112z"></path><path d="M31.967,12c2.206,0,4-1.794,4-4s-1.794-4-4-4s-4,1.794-4,4S29.761,12,31.967,12z M31.967,6c1.103,0,2,0.897,2,2   s-0.897,2-2,2s-2-0.897-2-2S30.864,6,31.967,6z"></path><circle cx="47.967" cy="25" r="1"></circle><circle cx="44.967" cy="46" r="1"></circle><circle cx="43.967" cy="50" r="1"></circle><circle cx="15.967" cy="41" r="1"></circle><circle cx="18.967" cy="37" r="1"></circle><circle cx="13.967" cy="34" r="1"></circle></g></svg>