<svg height='100px' width='100px'  fill="#000000" xmlns="http://www.w3.org/2000/svg" data-name="Layer 1" viewBox="0 0 512 512" x="0px" y="0px"><title>Male</title><g data-name="Group"><path data-name="Compound Path" d="M256,476.42a137.552,137.552,0,0,0,97.928-40.5c54-54,54-141.857,0-195.854A136.861,136.861,0,0,0,280,201.639V124.148l28.119,28.12a8,8,0,0,0,11.315,0l22.627-22.628a8,8,0,0,0,0-11.313l-80.4-80.4a8,8,0,0,0-11.314,0l-80.4,80.4a8,8,0,0,0,0,11.313l22.627,22.628a8,8,0,0,0,11.315,0L232,124.148v77.491a136.861,136.861,0,0,0-73.928,38.425c-54,54-54,141.857,0,195.854A137.552,137.552,0,0,0,256,476.42ZM169.387,251.377a121.153,121.153,0,0,1,71.586-34.9,8,8,0,0,0,7.027-7.94V104.835a8,8,0,0,0-13.657-5.657L198.224,135.3,186.91,123.983,256,54.894l69.09,69.089L313.776,135.3,277.657,99.178A8,8,0,0,0,264,104.835V208.541a8,8,0,0,0,7.027,7.94,121.153,121.153,0,0,1,71.586,34.9,122.49,122.49,0,1,1-173.226,0Z"></path><path data-name="Compound Path" d="M256,444.432a106.441,106.441,0,1,0-75.3-31.14A106.163,106.163,0,0,0,256,444.432ZM192.014,274a90.491,90.491,0,1,1,0,127.974A90.2,90.2,0,0,1,192.014,274Z"></path></g></svg>